<svg width="150" height="18" viewBox="0 0 150 18" fill="none" xmlns="http://www.w3.org/2000/svg">
<path d="M129.842 6.637C129.842 6.20692 129.757 5.78113 129.592 5.38394C129.427 4.98675 129.185 4.62594 128.881 4.3221C128.576 4.01827 128.215 3.77737 127.818 3.61315C127.42 3.44893 126.994 3.36461 126.564 3.365H112.164L113.475 5.547H126.564C126.711 5.5407 126.858 5.56425 126.996 5.61623C127.134 5.66822 127.26 5.74756 127.366 5.84949C127.473 5.95142 127.557 6.07383 127.615 6.20934C127.673 6.34485 127.703 6.49066 127.703 6.638C127.703 6.78534 127.673 6.93115 127.615 7.06666C127.557 7.20217 127.473 7.32458 127.366 7.42651C127.26 7.52844 127.134 7.60778 126.996 7.65977C126.858 7.71175 126.711 7.7353 126.564 7.729H112.164V14.275H114.786V9.91H124.478L127.002 14.274H129.843L127.275 9.832C128.003 9.67111 128.654 9.26684 129.121 8.68594C129.588 8.10504 129.842 7.38227 129.843 6.637H129.842ZM86.985 7.728H74.551V3.364H71.928V14.273H74.551V9.91H86.985V14.273H89.607V3.364H86.985V7.728ZM54.441 8.819C54.4413 8.38884 54.5263 7.96294 54.6912 7.56563C54.856 7.16833 55.0976 6.8074 55.402 6.50346C55.7064 6.19952 56.0677 5.95852 56.4653 5.79424C56.8628 5.62996 57.2888 5.54561 57.719 5.546H68.186L69.497 3.364H57.282C55.8347 3.364 54.4465 3.93833 53.4223 4.96089C52.398 5.98346 51.8214 7.37068 51.819 8.818C51.8171 9.99893 52.2009 11.1482 52.912 12.091C53.4211 12.769 54.0809 13.3193 54.8394 13.6982C55.5979 14.077 56.4342 14.2742 57.282 14.274H68.186L69.497 12.092H57.72C56.8514 12.0923 56.0182 11.7477 55.4036 11.134C54.7889 10.5202 54.4421 9.68759 54.441 8.819ZM146.29 3.365L140.064 8.148L133.838 3.365H129.993L138.513 9.91V14.273H141.48V9.91L150 3.365H146.29ZM94.676 6.61C94.683 6.32553 94.8009 6.05506 95.0046 5.85629C95.2082 5.65752 95.4814 5.54617 95.766 5.546H108.421L109.732 3.364H95.332C94.9018 3.36361 94.4758 3.44796 94.0783 3.61224C93.6807 3.77652 93.3194 4.01752 93.015 4.32146C92.7106 4.6254 92.469 4.98633 92.3042 5.38363C92.1393 5.78094 92.0543 6.20684 92.054 6.637V14.273H108.421L109.732 12.091H94.676V9.91H105.799L107.11 7.728H94.676V6.61ZM34.115 3.743C31.202 2.872 27.535 2.274 23.479 2.074C22.5114 2.0263 21.5428 2.00162 20.574 2H20.336C19.35 2.002 18.381 2.027 17.433 2.074C13.376 2.274 9.708 2.87 6.796 3.744C2.624 4.99 0 6.803 0 8.818C0 10.524 1.883 12.086 4.993 13.282C6.255 13.768 7.72 14.194 9.345 14.544C10.7517 14.845 12.172 15.0786 13.601 15.244C15.876 15.5087 18.1646 15.6396 20.455 15.636C22.7454 15.6396 25.034 15.5087 27.309 15.244C28.7379 15.0781 30.1582 14.8445 31.565 14.544C33.189 14.194 34.655 13.767 35.917 13.282C39.028 12.087 40.91 10.525 40.91 8.818C40.91 6.802 38.286 4.99 34.114 3.742L34.115 3.743ZM8.493 10.748C7.642 11.365 6.523 11.488 5.566 11.053C3.77 10.238 2.726 9.267 2.726 8.224C2.726 6.916 4.369 5.719 7.081 4.804C10.026 3.81 14.231 3.148 18.965 3.033L19.155 3.029C19.44 3.022 19.725 3.019 20.015 3.016C19.821 3.046 19.635 3.094 19.457 3.161L19.45 3.163C19.39 3.186 19.33 3.21 19.273 3.237L19.264 3.231C18.554 3.516 17.594 4.168 17.284 4.384L17.231 4.422L17.182 4.456L9.617 9.934L8.493 10.748ZM27.613 12.991C25.423 13.276 23.002 13.434 20.456 13.434C17.909 13.434 15.488 13.276 13.299 12.991C11.299 12.631 12.263 11.275 12.786 10.693C12.868 10.6002 12.9545 10.5115 13.045 10.427L13.048 10.424C14.8253 8.61887 16.7158 6.92878 18.708 5.364H18.711C18.7499 5.3316 18.7899 5.30058 18.831 5.271C19.108 5.064 19.815 4.591 20.456 4.592C21.094 4.591 21.802 5.064 22.079 5.271C22.1149 5.29603 22.1496 5.32272 22.183 5.351L22.196 5.361L22.202 5.366C24.195 6.93165 26.0865 8.6224 27.865 10.428C27.9481 10.5059 28.0278 10.5873 28.104 10.672C28.624 11.242 29.635 12.625 27.613 12.991ZM35.345 11.053C34.8734 11.2647 34.3542 11.348 33.84 11.2945C33.3258 11.2409 32.8349 11.0524 32.417 10.748L31.293 9.934L23.728 4.456C23.728 4.456 23.719 4.451 23.703 4.438L23.68 4.422L23.627 4.384C23.317 4.168 22.357 3.516 21.646 3.231L21.637 3.237C21.5814 3.21095 21.5246 3.18726 21.467 3.166L21.454 3.161C21.2741 3.09371 21.0878 3.04512 20.898 3.016C21.2477 3.01793 21.5974 3.02359 21.947 3.033C26.68 3.148 30.885 3.81 33.829 4.803H33.83C36.542 5.719 38.185 6.916 38.185 8.224C38.185 9.267 37.142 10.238 35.345 11.053Z" fill="white"/>
</svg>
