<svg width="20" height="20" viewBox="0 0 20 20" fill="none" xmlns="http://www.w3.org/2000/svg">
<path d="M12.4995 3.33333V7.5M12.4995 7.5L16.6662 7.5M12.4995 7.5L17.4995 2.5M8.52204 11.5526C7.52072 10.5512 6.73007 9.41904 6.15007 8.21102C6.10018 8.10712 6.07523 8.05516 6.05607 7.98942C5.98797 7.75579 6.03688 7.46891 6.17856 7.27105C6.21843 7.21537 6.26606 7.16774 6.36132 7.07248C6.65266 6.78115 6.79833 6.63548 6.89356 6.48899C7.25273 5.93659 7.25273 5.22443 6.89356 4.67203C6.79833 4.52554 6.65266 4.37988 6.36132 4.08854L6.19893 3.92615C5.75606 3.48328 5.53462 3.26184 5.29681 3.14156C4.82384 2.90233 4.26529 2.90233 3.79232 3.14156C3.5545 3.26184 3.33307 3.48328 2.8902 3.92615L2.75883 4.05751C2.31748 4.49886 2.09681 4.71954 1.92827 5.01956C1.74125 5.35249 1.60678 5.86956 1.60792 6.25141C1.60894 6.59554 1.67569 6.83072 1.8092 7.30109C2.52668 9.82892 3.8804 12.2142 5.87039 14.2042C7.86037 16.1942 10.2457 17.5479 12.7735 18.2654C13.2439 18.3989 13.4791 18.4657 13.8232 18.4667C14.205 18.4678 14.7221 18.3333 15.055 18.1463C15.3551 17.9778 15.5757 17.7571 16.0171 17.3158L16.1484 17.1844C16.5913 16.7415 16.8127 16.5201 16.933 16.2823C17.1723 15.8093 17.1723 15.2508 16.933 14.7778C16.8127 14.54 16.5913 14.3185 16.1484 13.8757L15.9861 13.7133C15.6947 13.4219 15.549 13.2763 15.4026 13.181C14.8502 12.8219 14.138 12.8219 13.5856 13.181C13.4391 13.2763 13.2934 13.4219 13.0021 13.7133C12.9068 13.8085 12.8592 13.8562 12.8035 13.896C12.6057 14.0377 12.3188 14.0866 12.0852 14.0185C12.0194 13.9994 11.9675 13.9744 11.8636 13.9245C10.6556 13.3445 9.52335 12.5539 8.52204 11.5526Z" stroke="black" stroke-width="1.5" stroke-linecap="round" stroke-linejoin="round"/>
</svg>
