<svg width="44" height="44" viewBox="0 0 44 44" fill="none" xmlns="http://www.w3.org/2000/svg">
<path d="M29.3335 7.33332C31.0384 7.33332 31.8909 7.33332 32.5903 7.52073C34.4883 8.0293 35.9709 9.51181 36.4794 11.4098C36.6668 12.1092 36.6668 12.9617 36.6668 14.6667V31.5333C36.6668 34.6136 36.6668 36.1538 36.0674 37.3303C35.5401 38.3652 34.6987 39.2066 33.6638 39.7339C32.4873 40.3333 30.9471 40.3333 27.8668 40.3333H16.1335C13.0532 40.3333 11.5131 40.3333 10.3365 39.7339C9.30166 39.2066 8.46026 38.3652 7.93296 37.3303C7.3335 36.1538 7.3335 34.6136 7.3335 31.5333V14.6667C7.3335 12.9617 7.3335 12.1092 7.5209 11.4098C8.02947 9.51181 9.51199 8.0293 11.41 7.52073C12.1094 7.33332 12.9619 7.33332 14.6668 7.33332M16.5002 27.5L20.1668 31.1667L28.4168 22.9167M17.6002 11H26.4002C27.4269 11 27.9403 11 28.3325 10.8002C28.6774 10.6244 28.9579 10.3439 29.1337 9.99897C29.3335 9.6068 29.3335 9.09342 29.3335 8.06666V6.59999C29.3335 5.57323 29.3335 5.05985 29.1337 4.66767C28.9579 4.32271 28.6774 4.04225 28.3325 3.86648C27.9403 3.66666 27.4269 3.66666 26.4002 3.66666H17.6002C16.5734 3.66666 16.06 3.66666 15.6678 3.86648C15.3229 4.04225 15.0424 4.32271 14.8667 4.66767C14.6668 5.05985 14.6668 5.57323 14.6668 6.59999V8.06666C14.6668 9.09342 14.6668 9.6068 14.8667 9.99897C15.0424 10.3439 15.3229 10.6244 15.6678 10.8002C16.06 11 16.5734 11 17.6002 11Z" stroke="white" stroke-width="2" stroke-linecap="round" stroke-linejoin="round"/>
</svg>
