<svg width="30" height="30" viewBox="0 0 30 30" fill="none" xmlns="http://www.w3.org/2000/svg">
<path d="M5 13.75H25M5 13.75C3.61929 13.75 2.5 12.6307 2.5 11.25V10C2.5 8.61929 3.61929 7.5 5 7.5H25C26.3807 7.5 27.5 8.61929 27.5 10V11.25C27.5 12.6307 26.3807 13.75 25 13.75M5 13.75L5 25C5 26.3807 6.11929 27.5 7.5 27.5H22.5C23.8807 27.5 25 26.3807 25 25V13.75M15 7.5H20C21.3807 7.5 22.5 6.38071 22.5 5C22.5 3.61929 21.3807 2.5 20 2.5C17.2386 2.5 15 4.73858 15 7.5ZM15 7.5H10C8.61929 7.5 7.5 6.38071 7.5 5C7.5 3.61929 8.61929 2.5 10 2.5C12.7614 2.5 15 4.73858 15 7.5ZM15 7.5V27.5" stroke="white" stroke-width="1.5" stroke-linecap="round"/>
</svg>
