<svg width="26" height="26" viewBox="0 0 26 26" fill="none" xmlns="http://www.w3.org/2000/svg">
<path d="M15.2203 6.49999C16.2784 6.70644 17.2509 7.22394 18.0132 7.98625C18.7755 8.74857 19.293 9.72103 19.4995 10.7792M15.2203 2.16666C17.4187 2.41088 19.4687 3.39535 21.0337 4.95841C22.5988 6.52148 23.5858 8.57025 23.8328 10.7683M11.0787 15.0183C9.77699 13.7166 8.74914 12.2447 7.99514 10.6743C7.93028 10.5392 7.89785 10.4717 7.87294 10.3862C7.78441 10.0825 7.848 9.70957 8.03218 9.45236C8.08401 9.37998 8.14593 9.31806 8.26976 9.19422C8.6485 8.81548 8.83787 8.62611 8.96168 8.43568C9.42859 7.71755 9.42859 6.79176 8.96168 6.07362C8.83787 5.8832 8.6485 5.69383 8.26976 5.31509L8.05865 5.10398C7.48292 4.52825 7.19506 4.24039 6.8859 4.08401C6.27104 3.77302 5.54492 3.77302 4.93006 4.08401C4.6209 4.24039 4.33303 4.52825 3.75731 5.10398L3.58653 5.27475C3.01278 5.84851 2.7259 6.13539 2.5068 6.52542C2.26367 6.95822 2.08886 7.63042 2.09034 8.12683C2.09167 8.57419 2.17845 8.87993 2.35201 9.49141C3.28473 12.7776 5.04457 15.8785 7.63155 18.4655C10.2185 21.0524 13.3194 22.8123 16.6056 23.745C17.2171 23.9186 17.5228 24.0053 17.9702 24.0067C18.4666 24.0081 19.1388 23.8333 19.5716 23.5902C19.9616 23.3711 20.2485 23.0842 20.8223 22.5105L20.993 22.3397C21.5688 21.764 21.8566 21.4761 22.013 21.167C22.324 20.5521 22.324 19.826 22.013 19.2111C21.8566 18.902 21.5688 18.6141 20.993 18.0384L20.7819 17.8272C20.4032 17.4485 20.2138 17.2591 20.0234 17.1353C19.3053 16.6684 18.3795 16.6684 17.6613 17.1353C17.4709 17.2591 17.2815 17.4485 16.9028 17.8272C16.779 17.9511 16.717 18.013 16.6447 18.0648C16.3874 18.249 16.0145 18.3126 15.7108 18.2241C15.6253 18.1992 15.5578 18.1667 15.4227 18.1019C13.8523 17.3479 12.3804 16.32 11.0787 15.0183Z" stroke="white" stroke-linecap="round" stroke-linejoin="round"/>
</svg>
