<svg width="20" height="20" viewBox="0 0 20 20" fill="none" xmlns="http://www.w3.org/2000/svg">
<g clip-path="url(#clip0_4077_2228)">
<path d="M9.99984 12.5C11.3805 12.5 12.4998 11.3807 12.4998 10C12.4998 8.61929 11.3805 7.5 9.99984 7.5C8.61913 7.5 7.49984 8.61929 7.49984 10C7.49984 11.3807 8.61913 12.5 9.99984 12.5Z" stroke="white" stroke-width="1.5" stroke-linecap="round" stroke-linejoin="round"/>
<path d="M15.6059 12.2727C15.5051 12.5012 15.475 12.7547 15.5195 13.0004C15.5641 13.2462 15.6812 13.473 15.8559 13.6515L15.9014 13.697C16.0422 13.8377 16.154 14.0048 16.2302 14.1887C16.3065 14.3727 16.3457 14.5698 16.3457 14.7689C16.3457 14.9681 16.3065 15.1652 16.2302 15.3492C16.154 15.5331 16.0422 15.7002 15.9014 15.8409C15.7606 15.9818 15.5935 16.0935 15.4096 16.1698C15.2257 16.246 15.0285 16.2853 14.8294 16.2853C14.6303 16.2853 14.4331 16.246 14.2492 16.1698C14.0652 16.0935 13.8981 15.9818 13.7574 15.8409L13.712 15.7955C13.5334 15.6208 13.3066 15.5036 13.0609 15.4591C12.8151 15.4145 12.5617 15.4446 12.3332 15.5455C12.1091 15.6415 11.918 15.8009 11.7834 16.0042C11.6488 16.2074 11.5766 16.4456 11.5756 16.6894V16.8182C11.5756 17.22 11.416 17.6054 11.1318 17.8896C10.8477 18.1737 10.4623 18.3333 10.0604 18.3333C9.6586 18.3333 9.27322 18.1737 8.98907 17.8896C8.70492 17.6054 8.54529 17.22 8.54529 16.8182V16.75C8.53943 16.4992 8.45826 16.2561 8.31235 16.052C8.16643 15.848 7.96252 15.6926 7.72711 15.6061C7.49861 15.5052 7.24515 15.4751 6.99939 15.5197C6.75364 15.5643 6.52687 15.6814 6.34832 15.8561L6.30287 15.9015C6.16215 16.0424 5.99505 16.1541 5.81111 16.2304C5.62717 16.3066 5.43001 16.3459 5.2309 16.3459C5.03178 16.3459 4.83462 16.3066 4.65069 16.2304C4.46675 16.1541 4.29965 16.0424 4.15893 15.9015C4.01805 15.7608 3.9063 15.5937 3.83005 15.4098C3.7538 15.2258 3.71455 15.0287 3.71455 14.8295C3.71455 14.6304 3.7538 14.4333 3.83005 14.2493C3.9063 14.0654 4.01805 13.8983 4.15893 13.7576L4.20438 13.7121C4.37903 13.5336 4.49619 13.3068 4.54075 13.0611C4.58531 12.8153 4.55523 12.5618 4.45438 12.3333C4.35835 12.1093 4.19889 11.9182 3.99564 11.7836C3.79239 11.649 3.55422 11.5767 3.31044 11.5758H3.18166C2.77981 11.5758 2.39443 11.4161 2.11028 11.132C1.82614 10.8478 1.6665 10.4625 1.6665 10.0606C1.6665 9.65876 1.82614 9.27338 2.11028 8.98923C2.39443 8.70509 2.77981 8.54546 3.18166 8.54546H3.24984C3.50059 8.53959 3.74378 8.45842 3.94779 8.31251C4.1518 8.16659 4.3072 7.96268 4.39378 7.72727C4.49462 7.49878 4.5247 7.24531 4.48014 6.99956C4.43558 6.7538 4.31843 6.52703 4.14378 6.34849L4.09832 6.30303C3.95745 6.16231 3.84569 5.99521 3.76944 5.81127C3.69319 5.62734 3.65395 5.43018 3.65395 5.23106C3.65395 5.03195 3.69319 4.83479 3.76944 4.65085C3.84569 4.46691 3.95745 4.29981 4.09832 4.15909C4.23904 4.01822 4.40614 3.90646 4.59008 3.83021C4.77402 3.75396 4.97118 3.71472 5.17029 3.71472C5.36941 3.71472 5.56657 3.75396 5.7505 3.83021C5.93444 3.90646 6.10154 4.01822 6.24226 4.15909L6.28772 4.20455C6.46626 4.3792 6.69303 4.49635 6.93879 4.54091C7.18454 4.58547 7.43801 4.55539 7.6665 4.45455H7.72711C7.95118 4.35851 8.14228 4.19906 8.27688 3.99581C8.41148 3.79256 8.48371 3.55439 8.48469 3.31061V3.18182C8.48469 2.77998 8.64432 2.39459 8.92846 2.11045C9.21261 1.8263 9.59799 1.66667 9.99984 1.66667C10.4017 1.66667 10.7871 1.8263 11.0712 2.11045C11.3554 2.39459 11.515 2.77998 11.515 3.18182V3.25C11.516 3.49378 11.5882 3.73195 11.7228 3.9352C11.8574 4.13845 12.0485 4.29791 12.2726 4.39394C12.5011 4.49479 12.7545 4.52487 13.0003 4.48031C13.246 4.43575 13.4728 4.31859 13.6514 4.14394L13.6968 4.09849C13.8375 3.95761 14.0046 3.84586 14.1886 3.76961C14.3725 3.69336 14.5697 3.65411 14.7688 3.65411C14.9679 3.65411 15.1651 3.69336 15.349 3.76961C15.5329 3.84586 15.7 3.95761 15.8407 4.09849C15.9816 4.2392 16.0934 4.40631 16.1696 4.59024C16.2459 4.77418 16.2851 4.97134 16.2851 5.17046C16.2851 5.36957 16.2459 5.56673 16.1696 5.75067C16.0934 5.93461 15.9816 6.10171 15.8407 6.24243L15.7953 6.28788C15.6206 6.46643 15.5035 6.6932 15.4589 6.93895C15.4144 7.1847 15.4444 7.43817 15.5453 7.66667V7.72727C15.6413 7.95134 15.8008 8.14244 16.004 8.27704C16.2073 8.41164 16.4455 8.48388 16.6892 8.48485H16.818C17.2199 8.48485 17.6052 8.64448 17.8894 8.92863C18.1735 9.21277 18.3332 9.59816 18.3332 10C18.3332 10.4018 18.1735 10.7872 17.8894 11.0714C17.6052 11.3555 17.2199 11.5152 16.818 11.5152H16.7498C16.5061 11.5161 16.2679 11.5884 16.0646 11.723C15.8614 11.8576 15.7019 12.0487 15.6059 12.2727Z" stroke="white" stroke-width="1.5" stroke-linecap="round" stroke-linejoin="round"/>
</g>
<defs>
<clipPath id="clip0_4077_2228">
<rect width="20" height="20" fill="white"/>
</clipPath>
</defs>
</svg>
