<svg width="20" height="20" viewBox="0 0 20 20" fill="none" xmlns="http://www.w3.org/2000/svg">
<g clip-path="url(#clip0_4077_1244)">
<path d="M14.7876 13.3333C15.4467 12.3884 15.8332 11.2394 15.8332 10C15.8332 9.57093 15.7868 9.15267 15.6989 8.74996M5.21208 13.3333C4.55302 12.3885 4.1665 11.2394 4.1665 10C4.1665 6.77834 6.77818 4.16667 9.99984 4.16667C10.3516 4.16667 10.6961 4.19781 11.0308 4.25748M13.7498 6.25L9.99976 10M18.3332 10C18.3332 14.6024 14.6022 18.3333 9.99984 18.3333C5.39746 18.3333 1.6665 14.6024 1.6665 10C1.6665 5.39763 5.39746 1.66667 9.99984 1.66667C14.6022 1.66667 18.3332 5.39763 18.3332 10ZM10.8332 10C10.8332 10.4602 10.4601 10.8333 9.99984 10.8333C9.5396 10.8333 9.1665 10.4602 9.1665 10C9.1665 9.53976 9.5396 9.16667 9.99984 9.16667C10.4601 9.16667 10.8332 9.53976 10.8332 10Z" stroke="white" stroke-width="1.5" stroke-linecap="round" stroke-linejoin="round"/>
</g>
<defs>
<clipPath id="clip0_4077_1244">
<rect width="20" height="20" fill="white"/>
</clipPath>
</defs>
</svg>
